<svg version="1.1" viewBox="0.0 0.0 867.0 634.0" fill="none" stroke="none" stroke-linecap="square" stroke-miterlimit="10" width="867" height="634" xmlns:xlink="http://www.w3.org/1999/xlink" xmlns="http://www.w3.org/2000/svg"><path fill="#ffffff" d="M0 0L867.0 0L867.0 634.0L0 634.0L0 0Z" fill-rule="nonzero"/><path stroke="#333333" stroke-width="1.0" stroke-linecap="butt" d="M90.5 582.5L835.5 582.5" fill-rule="nonzero"/><path stroke="#cccccc" stroke-width="1.0" stroke-linecap="butt" d="M90.5 482.5L835.5 482.5" fill-rule="nonzero"/><path stroke="#cccccc" stroke-width="1.0" stroke-linecap="butt" d="M90.5 382.5L835.5 382.5" fill-rule="nonzero"/><path stroke="#cccccc" stroke-width="1.0" stroke-linecap="butt" d="M90.5 283.5L835.5 283.5" fill-rule="nonzero"/><path stroke="#cccccc" stroke-width="1.0" stroke-linecap="butt" d="M90.5 183.5L835.5 183.5" fill-rule="nonzero"/><path stroke="#cccccc" stroke-width="1.0" stroke-linecap="butt" d="M90.5 83.5L835.5 83.5" fill-rule="nonzero"/><clipPath id="id_0"><path d="M90.7 83.833336L835.3 83.833336L835.3 582.3L90.7 582.3L90.7 83.833336Z" clip-rule="nonzero"/></clipPath><path stroke="#000000" stroke-width="2.0" stroke-linecap="butt" stroke-opacity="0.0" clip-path="url(#id_0)" d="M408.0 582.0L202.0 582.0L202.0 91.0C202.0 89.89543 202.89543 89.0 204.0 89.0L406.0 89.0C407.10458 89.0 408.0 89.89543 408.0 91.0Z" fill-rule="nonzero"/><path fill="#4285f4" clip-path="url(#id_0)" d="M408.0 582.0L202.0 582.0L202.0 91.0C202.0 89.89543 202.89543 89.0 204.0 89.0L406.0 89.0C407.10458 89.0 408.0 89.89543 408.0 91.0Z" fill-rule="nonzero"/><path stroke="#000000" stroke-width="2.0" stroke-linecap="butt" stroke-opacity="0.0" clip-path="url(#id_0)" d="M724.0 582.0L518.0 582.0L518.0 574.0C518.0 572.89545 518.89545 572.0 520.0 572.0L722.0 572.0C723.10455 572.0 724.0 572.89545 724.0 574.0Z" fill-rule="nonzero"/><path fill="#4285f4" clip-path="url(#id_0)" d="M724.0 582.0L518.0 582.0L518.0 574.0C518.0 572.89545 518.89545 572.0 520.0 572.0L722.0 572.0C723.10455 572.0 724.0 572.89545 724.0 574.0Z" fill-rule="nonzero"/><path fill="#000000" d="M42.69999 364.9573L35.121864 364.9573L35.121864 367.78543L34.10624 367.78543L34.10624 360.97293L35.121864 360.97293L35.121864 363.81668L42.69999 363.81668L42.69999 364.9573ZM35.32499 360.2698L34.10624 360.2698L34.10624 359.2073L35.32499 359.2073L35.32499 360.2698ZM42.69999 360.2698L36.48124 360.2698L36.48124 359.2073L42.69999 359.2073L42.69999 360.2698ZM42.69999 357.2698L36.48124 357.2698L36.48124 356.3323L37.35624 356.3323Q36.88749 356.03543 36.621864 355.55106Q36.340614 355.06668 36.340614 354.44168Q36.340614 353.75418 36.621864 353.31668Q36.903114 352.86356 37.41874 352.69168Q36.340614 351.94168 36.340614 350.7698Q36.340614 349.8323 36.85624 349.34793Q37.35624 348.84793 38.434364 348.84793L42.69999 348.84793L42.69999 349.8948L38.778114 349.8948Q38.153114 349.8948 37.871864 350.00418Q37.590614 350.09793 37.41874 350.36356Q37.246864 350.62918 37.246864 351.00418Q37.246864 351.66043 37.684364 352.09793Q38.121864 352.5198 39.090614 352.5198L42.69999 352.5198L42.69999 353.5823L38.653114 353.5823Q37.94999 353.5823 37.60624 353.84793Q37.246864 354.09793 37.246864 354.67606Q37.246864 355.12918 37.48124 355.50418Q37.715614 355.87918 38.16874 356.05106Q38.621864 356.22293 39.465614 356.22293L42.69999 356.22293L42.69999 357.2698ZM40.69999 342.0198L40.82499 340.92606Q41.778114 341.17606 42.309364 341.87918Q42.840614 342.5823 42.840614 343.66043Q42.840614 345.0198 41.996864 345.8323Q41.153114 346.62918 39.63749 346.62918Q38.07499 346.62918 37.215614 345.81668Q36.340614 345.00418 36.340614 343.72293Q36.340614 342.47293 37.184364 341.69168Q38.028114 340.8948 39.57499 340.8948Q39.66874 340.8948 39.85624 340.8948L39.85624 345.53543Q40.88749 345.47293 41.434364 344.9573Q41.965614 344.44168 41.965614 343.66043Q41.965614 343.0823 41.66874 342.67606Q41.35624 342.25418 40.69999 342.0198ZM38.996864 345.47293L38.996864 342.00418Q38.19999 342.06668 37.809364 342.3948Q37.19999 342.91043 37.19999 343.7073Q37.19999 344.44168 37.684364 344.94168Q38.16874 345.42606 38.996864 345.47293ZM45.23124 334.25418Q44.121864 335.12918 42.653114 335.73856Q41.16874 336.3323 39.590614 336.3323Q38.19999 336.3323 36.91874 335.8948Q35.434364 335.36356 33.965614 334.25418L33.965614 333.50418Q35.184364 334.2073 35.69999 334.44168Q36.51249 334.80106 37.38749 335.00418Q38.48124 335.25418 39.590614 335.25418Q42.41874 335.25418 45.23124 333.50418L45.23124 334.25418ZM42.69999 332.2698L36.48124 332.2698L36.48124 331.3323L37.35624 331.3323Q36.88749 331.03543 36.621864 330.55106Q36.340614 330.06668 36.340614 329.44168Q36.340614 328.75418 36.621864 328.31668Q36.903114 327.86356 37.41874 327.69168Q36.340614 326.94168 36.340614 325.7698Q36.340614 324.8323 36.85624 324.34793Q37.35624 323.84793 38.434364 323.84793L42.69999 323.84793L42.69999 324.8948L38.778114 324.8948Q38.153114 324.8948 37.871864 325.00418Q37.590614 325.09793 37.41874 325.36356Q37.246864 325.62918 37.246864 326.00418Q37.246864 326.66043 37.684364 327.09793Q38.121864 327.5198 39.090614 327.5198L42.69999 327.5198L42.69999 328.5823L38.653114 328.5823Q37.94999 328.5823 37.60624 328.84793Q37.246864 329.09793 37.246864 329.67606Q37.246864 330.12918 37.48124 330.50418Q37.715614 330.87918 38.16874 331.05106Q38.621864 331.22293 39.465614 331.22293L42.69999 331.22293L42.69999 332.2698ZM40.840614 321.69168L40.684364 320.66043Q41.309364 320.56668 41.63749 320.17606Q41.965614 319.7698 41.965614 319.03543Q41.965614 318.31668 41.684364 317.97293Q41.38749 317.61356 40.98124 317.61356Q40.621864 317.61356 40.41874 317.92606Q40.278114 318.1448 40.059364 319.00418Q39.76249 320.16043 39.559364 320.61356Q39.340614 321.05106 38.965614 321.28543Q38.590614 321.5198 38.121864 321.5198Q37.715614 321.5198 37.35624 321.3323Q36.996864 321.1448 36.76249 320.81668Q36.590614 320.56668 36.465614 320.1448Q36.340614 319.72293 36.340614 319.22293Q36.340614 318.50418 36.559364 317.9573Q36.76249 317.3948 37.121864 317.12918Q37.48124 316.86356 38.07499 316.7698L38.215614 317.80106Q37.746864 317.86356 37.48124 318.2073Q37.19999 318.53543 37.19999 319.16043Q37.19999 319.87918 37.44999 320.19168Q37.684364 320.50418 38.01249 320.50418Q38.215614 320.50418 38.371864 320.37918Q38.54374 320.23856 38.653114 319.97293Q38.715614 319.81668 38.91874 319.03543Q39.23124 317.91043 39.41874 317.47293Q39.60624 317.03543 39.965614 316.78543Q40.32499 316.53543 40.871864 316.53543Q41.403114 316.53543 41.871864 316.84793Q42.32499 317.1448 42.590614 317.72293Q42.840614 318.30106 42.840614 319.03543Q42.840614 320.25418 42.340614 320.8948Q41.82499 321.5198 40.840614 321.69168ZM45.23124 313.5823L45.23124 314.3323Q42.41874 312.5823 39.590614 312.5823Q38.496864 312.5823 37.403114 312.8323Q36.528114 313.03543 35.715614 313.3948Q35.19999 313.62918 33.965614 314.3323L33.965614 313.5823Q35.434364 312.48856 36.91874 311.9573Q38.19999 311.50418 39.590614 311.50418Q41.16874 311.50418 42.653114 312.11356Q44.121864 312.72293 45.23124 313.5823Z" fill-rule="nonzero"/><path fill="#000000" d="M78.2 582.0656Q78.2 580.53436 78.5125 579.6125Q78.825 578.675 79.43437 578.175Q80.05937 577.675 80.99687 577.675Q81.68437 577.675 82.2 577.95624Q82.73125 578.2375 83.075 578.76874Q83.41875 579.28436 83.60625 580.03436Q83.79375 580.78436 83.79375 582.0656Q83.79375 583.58124 83.48125 584.5031Q83.18437 585.425 82.55937 585.9406Q81.95 586.4406 80.99687 586.4406Q79.7625 586.4406 79.04375 585.55Q78.2 584.4875 78.2 582.0656ZM79.27812 582.0656Q79.27812 584.175 79.77812 584.8781Q80.27812 585.58124 80.99687 585.58124Q81.73125 585.58124 82.21562 584.8781Q82.71562 584.175 82.71562 582.0656Q82.71562 579.9406 82.21562 579.2531Q81.73125 578.55 80.98125 578.55Q80.2625 578.55 79.825 579.15936Q79.27812 579.9406 79.27812 582.0656Z" fill-rule="nonzero"/><path fill="#000000" d="M83.74687 485.59103L83.74687 486.60666L78.05937 486.60666Q78.05937 486.23166 78.18437 485.87228Q78.40312 485.29416 78.87187 484.73166Q79.35625 484.16916 80.2625 483.43478Q81.66875 482.27853 82.15312 481.60666Q82.65312 480.93478 82.65312 480.34103Q82.65312 479.71603 82.2 479.29416Q81.74687 478.85666 81.02812 478.85666Q80.2625 478.85666 79.80937 479.30978Q79.35625 479.7629 79.34062 480.5754L78.2625 480.46603Q78.37187 479.24728 79.09062 478.62228Q79.825 477.98166 81.05937 477.98166Q82.29375 477.98166 83.0125 478.66916Q83.73125 479.35666 83.73125 480.37228Q83.73125 480.8879 83.5125 481.3879Q83.30937 481.87228 82.80937 482.43478Q82.325 482.98166 81.2 483.93478Q80.24687 484.73166 79.96562 485.02853Q79.7 485.30978 79.52812 485.59103L83.74687 485.59103Z" fill-rule="nonzero"/><path fill="#000000" d="M81.575 386.91333L81.575 384.85083L77.85625 384.85083L77.85625 383.88208L81.77812 378.31958L82.6375 378.31958L82.6375 383.88208L83.79375 383.88208L83.79375 384.85083L82.6375 384.85083L82.6375 386.91333L81.575 386.91333ZM81.575 383.88208L81.575 380.0227L78.8875 383.88208L81.575 383.88208Z" fill-rule="nonzero"/><path fill="#000000" d="M83.66875 280.73563L82.62187 280.81375Q82.48125 280.18875 82.23125 279.9075Q81.79375 279.45438 81.16875 279.45438Q80.66875 279.45438 80.27812 279.73563Q79.79375 280.11063 79.49687 280.81375Q79.21562 281.50125 79.2 282.7825Q79.575 282.20438 80.12187 281.92313Q80.68437 281.64188 81.29375 281.64188Q82.34062 281.64188 83.075 282.42313Q83.825 283.20438 83.825 284.42313Q83.825 285.23563 83.46562 285.93875Q83.12187 286.62625 82.5125 287.00125Q81.90312 287.36063 81.1375 287.36063Q79.80937 287.36063 78.98125 286.39188Q78.15312 285.42313 78.15312 283.20438Q78.15312 280.70438 79.075 279.57938Q79.87187 278.595 81.23125 278.595Q82.24687 278.595 82.8875 279.17313Q83.54375 279.73563 83.66875 280.73563ZM79.37187 284.43875Q79.37187 284.98563 79.59062 285.48563Q79.825 285.97 80.23125 286.23563Q80.65312 286.50125 81.12187 286.50125Q81.77812 286.50125 82.2625 285.97Q82.74687 285.42313 82.74687 284.50125Q82.74687 283.61063 82.2625 283.095Q81.79375 282.57938 81.075 282.57938Q80.35625 282.57938 79.85625 283.095Q79.37187 283.61063 79.37187 284.43875Z" fill-rule="nonzero"/><path fill="#000000" d="M79.825 182.87042Q79.16875 182.62042 78.84062 182.18292Q78.52812 181.7298 78.52812 181.12042Q78.52812 180.18292 79.2 179.5423Q79.8875 178.90167 80.99687 178.90167Q82.12187 178.90167 82.80937 179.55792Q83.49687 180.21417 83.49687 181.15167Q83.49687 181.74542 83.18437 182.18292Q82.87187 182.62042 82.23125 182.87042Q83.02812 183.12042 83.43437 183.69855Q83.84062 184.27667 83.84062 185.07355Q83.84062 186.1673 83.05937 186.9173Q82.29375 187.6673 81.0125 187.6673Q79.74687 187.6673 78.96562 186.9173Q78.18437 186.1673 78.18437 185.0423Q78.18437 184.19855 78.60625 183.63605Q79.04375 183.07355 79.825 182.87042ZM79.60625 181.07355Q79.60625 181.68292 79.99687 182.07355Q80.40312 182.46417 81.02812 182.46417Q81.6375 182.46417 82.02812 182.08917Q82.41875 181.69855 82.41875 181.13605Q82.41875 180.55792 82.0125 180.1673Q81.60625 179.76105 81.0125 179.76105Q80.40312 179.76105 79.99687 180.15167Q79.60625 180.5423 79.60625 181.07355ZM79.27812 185.0423Q79.27812 185.49542 79.48125 185.9173Q79.7 186.33917 80.12187 186.57355Q80.54375 186.80792 81.02812 186.80792Q81.77812 186.80792 82.2625 186.32355Q82.7625 185.83917 82.7625 185.08917Q82.7625 184.32355 82.2625 183.82355Q81.7625 183.32355 80.99687 183.32355Q80.24687 183.32355 79.7625 183.82355Q79.27812 184.30792 79.27812 185.0423Z" fill-rule="nonzero"/><path fill="#000000" d="M75.16875 87.833336L74.12187 87.833336L74.12187 81.114586Q73.73125 81.47396 73.10625 81.84896Q72.49687 82.208336 72.0125 82.38021L72.0125 81.364586Q72.8875 80.94271 73.54375 80.364586Q74.21562 79.770836 74.49687 79.208336L75.16875 79.208336L75.16875 87.833336ZM78.2 83.59896Q78.2 82.06771 78.5125 81.145836Q78.825 80.208336 79.43437 79.708336Q80.05937 79.208336 80.99687 79.208336Q81.68437 79.208336 82.2 79.489586Q82.73125 79.770836 83.075 80.302086Q83.41875 80.81771 83.60625 81.56771Q83.79375 82.31771 83.79375 83.59896Q83.79375 85.114586 83.48125 86.03646Q83.18437 86.958336 82.55937 87.47396Q81.95 87.97396 80.99687 87.97396Q79.7625 87.97396 79.04375 87.083336Q78.2 86.020836 78.2 83.59896ZM79.27812 83.59896Q79.27812 85.708336 79.77812 86.41146Q80.27812 87.114586 80.99687 87.114586Q81.73125 87.114586 82.21562 86.41146Q82.71562 85.708336 82.71562 83.59896Q82.71562 81.47396 82.21562 80.78646Q81.73125 80.083336 80.98125 80.083336Q80.2625 80.083336 79.825 80.69271Q79.27812 81.47396 79.27812 83.59896Z" fill-rule="nonzero"/><path fill="#000000" d="M272.63696 596.28436L273.76196 596.58124Q273.4026 597.97186 272.4807 598.70624Q271.55884 599.4406 270.2151 599.4406Q268.82446 599.4406 267.94946 598.8781Q267.07446 598.3156 266.62134 597.2531Q266.1682 596.175 266.1682 594.9406Q266.1682 593.59686 266.68384 592.59686Q267.19946 591.59686 268.13696 591.08124Q269.0901 590.5656 270.2307 590.5656Q271.51196 590.5656 272.38696 591.22186Q273.2776 591.8781 273.62134 593.0656L272.49634 593.33124Q272.19946 592.39374 271.62134 591.97186Q271.05884 591.53436 270.19946 591.53436Q269.2151 591.53436 268.5432 592.01874Q267.88696 592.4875 267.6057 593.28436Q267.3401 594.08124 267.3401 594.9406Q267.3401 596.03436 267.6526 596.84686Q267.9807 597.65936 268.6526 598.0656Q269.32446 598.47186 270.12134 598.47186Q271.07446 598.47186 271.7307 597.925Q272.4026 597.3781 272.63696 596.28436ZM275.37134 599.3L275.37134 590.70624L276.4182 590.70624L276.4182 593.78436Q277.1526 592.9406 278.2776 592.9406Q278.9807 592.9406 279.4807 593.22186Q279.99634 593.4875 280.2151 593.97186Q280.43384 594.4406 280.43384 595.3625L280.43384 599.3L279.38696 599.3L279.38696 595.3625Q279.38696 594.5656 279.0432 594.20624Q278.69946 593.84686 278.07446 593.84686Q277.6057 593.84686 277.18384 594.09686Q276.7776 594.33124 276.5901 594.7531Q276.4182 595.15936 276.4182 595.89374L276.4182 599.3L275.37134 599.3ZM282.37134 591.925L282.37134 590.70624L283.43384 590.70624L283.43384 591.925L282.37134 591.925ZM282.37134 599.3L282.37134 593.08124L283.43384 593.08124L283.43384 599.3L282.37134 599.3ZM285.3401 599.3L285.3401 590.70624L286.4026 590.70624L286.4026 599.3L285.3401 599.3ZM292.4026 599.3L292.4026 598.51874Q291.80884 599.4406 290.6682 599.4406Q289.9182 599.4406 289.2932 599.03436Q288.6682 598.6125 288.32446 597.8781Q287.9807 597.14374 287.9807 596.1906Q287.9807 595.26874 288.2932 594.5031Q288.6057 593.7375 289.2307 593.34686Q289.8557 592.9406 290.62134 592.9406Q291.18384 592.9406 291.62134 593.175Q292.05884 593.40936 292.3401 593.78436L292.3401 590.70624L293.38696 590.70624L293.38696 599.3L292.4026 599.3ZM289.07446 596.1906Q289.07446 597.39374 289.57446 597.9875Q290.07446 598.5656 290.76196 598.5656Q291.44946 598.5656 291.93384 598.0031Q292.4182 597.4406 292.4182 596.28436Q292.4182 595.0031 291.9182 594.40936Q291.43384 593.8156 290.7151 593.8156Q290.01196 593.8156 289.5432 594.39374Q289.07446 594.95624 289.07446 596.1906ZM298.49634 599.3L298.49634 590.70624L301.74634 590.70624Q302.5901 590.70624 303.0432 590.78436Q303.68384 590.89374 304.1057 591.1906Q304.5432 591.4875 304.7932 592.01874Q305.05884 592.55 305.05884 593.1906Q305.05884 594.28436 304.3557 595.05Q303.6682 595.8 301.8401 595.8L299.63696 595.8L299.63696 599.3L298.49634 599.3ZM299.63696 594.8L301.8557 594.8Q302.9651 594.8 303.4182 594.39374Q303.88696 593.97186 303.88696 593.22186Q303.88696 592.6906 303.6057 592.3156Q303.3401 591.925 302.9026 591.8Q302.6057 591.72186 301.8401 591.72186L299.63696 591.72186L299.63696 594.8ZM306.3557 599.3L306.3557 593.08124L307.30884 593.08124L307.30884 594.01874Q307.6682 593.3625 307.9651 593.15936Q308.2776 592.9406 308.6526 592.9406Q309.18384 592.9406 309.7307 593.26874L309.37134 594.2531Q308.9807 594.01874 308.6057 594.01874Q308.24634 594.01874 307.9651 594.2375Q307.69946 594.4406 307.5901 594.8156Q307.4026 595.3781 307.4026 596.03436L307.4026 599.3L306.3557 599.3ZM309.9807 596.1906Q309.9807 594.45624 310.93384 593.6281Q311.7307 592.9406 312.88696 592.9406Q314.1682 592.9406 314.9807 593.78436Q315.80884 594.6125 315.80884 596.09686Q315.80884 597.3 315.44946 597.9875Q315.0901 598.675 314.38696 599.0656Q313.69946 599.4406 312.88696 599.4406Q311.5901 599.4406 310.7776 598.6125Q309.9807 597.76874 309.9807 596.1906ZM311.05884 596.1906Q311.05884 597.3781 311.57446 597.97186Q312.1057 598.5656 312.88696 598.5656Q313.68384 598.5656 314.19946 597.97186Q314.7151 597.3781 314.7151 596.15936Q314.7151 595.0031 314.18384 594.40936Q313.6682 593.8156 312.88696 593.8156Q312.1057 593.8156 311.57446 594.40936Q311.05884 594.9875 311.05884 596.1906ZM321.43384 597.01874L322.4651 597.15936Q322.2932 598.22186 321.5901 598.83124Q320.88696 599.4406 319.87134 599.4406Q318.5901 599.4406 317.80884 598.6125Q317.0432 597.76874 317.0432 596.20624Q317.0432 595.20624 317.37134 594.45624Q317.7151 593.6906 318.38696 593.3156Q319.07446 592.9406 319.88696 592.9406Q320.88696 592.9406 321.5276 593.45624Q322.18384 593.95624 322.37134 594.90936L321.3401 595.0656Q321.19946 594.4406 320.82446 594.1281Q320.44946 593.8 319.9182 593.8Q319.12134 593.8 318.62134 594.3781Q318.12134 594.9406 318.12134 596.175Q318.12134 597.4406 318.6057 598.0031Q319.0901 598.5656 319.8557 598.5656Q320.4807 598.5656 320.88696 598.1906Q321.30884 597.8156 321.43384 597.01874ZM327.62134 597.3L328.7151 597.425Q328.4651 598.3781 327.76196 598.90936Q327.05884 599.4406 325.9807 599.4406Q324.62134 599.4406 323.80884 598.59686Q323.01196 597.7531 323.01196 596.2375Q323.01196 594.675 323.82446 593.8156Q324.63696 592.9406 325.9182 592.9406Q327.1682 592.9406 327.94946 593.78436Q328.74634 594.6281 328.74634 596.175Q328.74634 596.26874 328.74634 596.45624L324.1057 596.45624Q324.1682 597.4875 324.68384 598.03436Q325.19946 598.5656 325.9807 598.5656Q326.55884 598.5656 326.9651 598.26874Q327.38696 597.95624 327.62134 597.3ZM324.1682 595.59686L327.63696 595.59686Q327.57446 594.8 327.24634 594.40936Q326.7307 593.8 325.93384 593.8Q325.19946 593.8 324.69946 594.28436Q324.2151 594.76874 324.1682 595.59686ZM329.94946 597.4406L330.9807 597.28436Q331.07446 597.90936 331.4651 598.2375Q331.87134 598.5656 332.6057 598.5656Q333.32446 598.5656 333.6682 598.28436Q334.0276 597.9875 334.0276 597.58124Q334.0276 597.22186 333.7151 597.01874Q333.49634 596.8781 332.63696 596.65936Q331.4807 596.3625 331.0276 596.15936Q330.5901 595.9406 330.3557 595.5656Q330.12134 595.1906 330.12134 594.72186Q330.12134 594.3156 330.30884 593.95624Q330.49634 593.59686 330.82446 593.3625Q331.07446 593.1906 331.49634 593.0656Q331.9182 592.9406 332.4182 592.9406Q333.13696 592.9406 333.68384 593.15936Q334.24634 593.3625 334.51196 593.72186Q334.7776 594.08124 334.87134 594.675L333.8401 594.8156Q333.7776 594.34686 333.43384 594.08124Q333.1057 593.8 332.4807 593.8Q331.76196 593.8 331.44946 594.05Q331.13696 594.28436 331.13696 594.6125Q331.13696 594.8156 331.26196 594.97186Q331.4026 595.14374 331.6682 595.2531Q331.82446 595.3156 332.6057 595.51874Q333.7307 595.83124 334.1682 596.01874Q334.6057 596.20624 334.8557 596.5656Q335.1057 596.925 335.1057 597.47186Q335.1057 598.0031 334.7932 598.47186Q334.49634 598.925 333.9182 599.1906Q333.3401 599.4406 332.6057 599.4406Q331.38696 599.4406 330.74634 598.9406Q330.12134 598.425 329.94946 597.4406ZM336.94946 597.4406L337.9807 597.28436Q338.07446 597.90936 338.4651 598.2375Q338.87134 598.5656 339.6057 598.5656Q340.32446 598.5656 340.6682 598.28436Q341.0276 597.9875 341.0276 597.58124Q341.0276 597.22186 340.7151 597.01874Q340.49634 596.8781 339.63696 596.65936Q338.4807 596.3625 338.0276 596.15936Q337.5901 595.9406 337.3557 595.5656Q337.12134 595.1906 337.12134 594.72186Q337.12134 594.3156 337.30884 593.95624Q337.49634 593.59686 337.82446 593.3625Q338.07446 593.1906 338.49634 593.0656Q338.9182 592.9406 339.4182 592.9406Q340.13696 592.9406 340.68384 593.15936Q341.24634 593.3625 341.51196 593.72186Q341.7776 594.08124 341.87134 594.675L340.8401 594.8156Q340.7776 594.34686 340.43384 594.08124Q340.1057 593.8 339.4807 593.8Q338.76196 593.8 338.44946 594.05Q338.13696 594.28436 338.13696 594.6125Q338.13696 594.8156 338.26196 594.97186Q338.4026 595.14374 338.6682 595.2531Q338.82446 595.3156 339.6057 595.51874Q340.7307 595.83124 341.1682 596.01874Q341.6057 596.20624 341.8557 596.5656Q342.1057 596.925 342.1057 597.47186Q342.1057 598.0031 341.7932 598.47186Q341.49634 598.925 340.9182 599.1906Q340.3401 599.4406 339.6057 599.4406Q338.38696 599.4406 337.74634 598.9406Q337.12134 598.425 336.94946 597.4406Z" fill-rule="nonzero"/><path fill="#000000" d="M608.8474 599.3L608.8474 590.70624L610.00366 590.70624L614.5193 597.45624L614.5193 590.70624L615.61304 590.70624L615.61304 599.3L614.44116 599.3L609.92554 592.55L609.92554 599.3L608.8474 599.3ZM616.9099 599.3L620.2068 590.70624L621.42554 590.70624L624.94116 599.3L623.6599 599.3L622.6443 596.6906L619.06616 596.6906L618.11304 599.3L616.9099 599.3ZM619.3943 595.76874L622.30054 595.76874L621.4099 593.39374Q620.98804 592.3156 620.80054 591.6125Q620.62866 592.4406 620.3318 593.2531L619.3943 595.76874ZM624.8474 599.3L624.8474 590.70624L628.0974 590.70624Q628.94116 590.70624 629.3943 590.78436Q630.0349 590.89374 630.4568 591.1906Q630.8943 591.4875 631.1443 592.01874Q631.4099 592.55 631.4099 593.1906Q631.4099 594.28436 630.7068 595.05Q630.0193 595.8 628.19116 595.8L625.98804 595.8L625.98804 599.3L624.8474 599.3ZM625.98804 594.8L628.2068 594.8Q629.31616 594.8 629.7693 594.39374Q630.23804 593.97186 630.23804 593.22186Q630.23804 592.6906 629.9568 592.3156Q629.69116 591.925 629.25366 591.8Q628.9568 591.72186 628.19116 591.72186L625.98804 591.72186L625.98804 594.8ZM633.05054 599.3L633.05054 590.70624L634.17554 590.70624L634.17554 599.3L633.05054 599.3Z" fill-rule="nonzero"/><path fill="#757575" d="M39.153126 50.7L37.3875 50.7L37.3875 39.496876Q36.7625 40.10625 35.73125 40.715626Q34.7 41.309376 33.871876 41.621876L33.871876 39.91875Q35.35625 39.23125 36.45 38.246876Q37.559376 37.246876 38.0125 36.325L39.153126 36.325L39.153126 50.7ZM53.85625 49.121876L54.10625 50.684376Q53.371876 50.840626 52.778126 50.840626Q51.825 50.840626 51.29375 50.54375Q50.778126 50.23125 50.559376 49.746876Q50.340626 49.246876 50.340626 47.66875L50.340626 41.7L49.059376 41.7L49.059376 40.325L50.340626 40.325L50.340626 37.7625L52.090626 36.7L52.090626 40.325L53.85625 40.325L53.85625 41.7L52.090626 41.7L52.090626 47.7625Q52.090626 48.5125 52.184376 48.73125Q52.278126 48.934376 52.48125 49.075Q52.7 49.2 53.090626 49.2Q53.371876 49.2 53.85625 49.121876ZM56.0125 50.7L56.0125 36.3875L57.778126 36.3875L57.778126 41.5125Q59.0125 40.090626 60.8875 40.090626Q62.028126 40.090626 62.871876 40.54375Q63.73125 40.996876 64.09062 41.809376Q64.46562 42.60625 64.46562 44.121876L64.46562 50.7L62.715626 50.7L62.715626 44.121876Q62.715626 42.809376 62.1375 42.215626Q61.559376 41.60625 60.528126 41.60625Q59.746876 41.60625 59.04375 42.0125Q58.35625 42.41875 58.059376 43.121876Q57.778126 43.809376 57.778126 45.028126L57.778126 50.7L56.0125 50.7ZM65.99687 50.7L65.99687 40.325L67.575 40.325L67.575 41.903126Q68.18437 40.79375 68.7 40.45Q69.21562 40.090626 69.825 40.090626Q70.71562 40.090626 71.6375 40.653126L71.02812 42.29375Q70.3875 41.903126 69.74687 41.903126Q69.16875 41.903126 68.7 42.2625Q68.24687 42.60625 68.04375 43.215626Q67.7625 44.153126 67.7625 45.2625L67.7625 50.7L65.99687 50.7ZM80.12187 47.35625L81.93437 47.590626Q81.5125 49.16875 80.34062 50.059376Q79.18437 50.934376 77.37187 50.934376Q75.10625 50.934376 73.7625 49.54375Q72.43437 48.1375 72.43437 45.60625Q72.43437 42.98125 73.77812 41.54375Q75.12187 40.090626 77.27812 40.090626Q79.35625 40.090626 80.66875 41.5125Q81.99687 42.91875 81.99687 45.496876Q81.99687 45.653126 81.98125 45.965626L74.24687 45.965626Q74.34062 47.66875 75.21562 48.575Q76.09062 49.48125 77.3875 49.48125Q78.35625 49.48125 79.02812 48.98125Q79.71562 48.465626 80.12187 47.35625ZM74.34062 44.5125L80.1375 44.5125Q80.02812 43.215626 79.48125 42.559376Q78.6375 41.54375 77.29375 41.54375Q76.09062 41.54375 75.2625 42.35625Q74.43437 43.153126 74.34062 44.5125ZM90.79375 49.41875Q89.80937 50.246876 88.90312 50.590626Q87.99687 50.934376 86.96562 50.934376Q85.2625 50.934376 84.34062 50.10625Q83.41875 49.2625 83.41875 47.965626Q83.41875 47.2 83.7625 46.575Q84.12187 45.95 84.68437 45.575Q85.24687 45.184376 85.95 44.98125Q86.46562 44.85625 87.5125 44.715626Q89.6375 44.465626 90.6375 44.121876Q90.65312 43.7625 90.65312 43.653126Q90.65312 42.590626 90.15312 42.1375Q89.48125 41.54375 88.15312 41.54375Q86.90312 41.54375 86.30937 41.98125Q85.73125 42.41875 85.45 43.528126L83.73125 43.29375Q83.96562 42.184376 84.49687 41.5125Q85.02812 40.825 86.04375 40.465626Q87.05937 40.090626 88.40312 40.090626Q89.73125 40.090626 90.55937 40.403126Q91.3875 40.715626 91.77812 41.2Q92.16875 41.66875 92.325 42.3875Q92.41875 42.840626 92.41875 44.0125L92.41875 46.35625Q92.41875 48.809376 92.52812 49.465626Q92.6375 50.10625 92.98125 50.7L91.1375 50.7Q90.87187 50.153126 90.79375 49.41875ZM90.6375 45.496876Q89.68437 45.8875 87.7625 46.153126Q86.68437 46.309376 86.23125 46.5125Q85.79375 46.7 85.54375 47.075Q85.29375 47.45 85.29375 47.91875Q85.29375 48.621876 85.825 49.090626Q86.35625 49.559376 87.3875 49.559376Q88.40312 49.559376 89.18437 49.121876Q89.98125 48.66875 90.35625 47.903126Q90.6375 47.29375 90.6375 46.1375L90.6375 45.496876ZM101.74687 50.7L101.74687 49.3875Q100.7625 50.934376 98.84062 50.934376Q97.60625 50.934376 96.55937 50.246876Q95.52812 49.559376 94.95 48.340626Q94.3875 47.121876 94.3875 45.528126Q94.3875 43.965626 94.90312 42.7Q95.41875 41.434376 96.45 40.7625Q97.49687 40.090626 98.7625 40.090626Q99.7 40.090626 100.43437 40.496876Q101.16875 40.8875 101.6375 41.5125L101.6375 36.3875L103.37187 36.3875L103.37187 50.7L101.74687 50.7ZM96.18437 45.528126Q96.18437 47.5125 97.02812 48.496876Q97.87187 49.48125 99.0125 49.48125Q100.16875 49.48125 100.96562 48.54375Q101.77812 47.60625 101.77812 45.66875Q101.77812 43.54375 100.95 42.54375Q100.1375 41.54375 98.93437 41.54375Q97.7625 41.54375 96.96562 42.5125Q96.18437 43.465626 96.18437 45.528126ZM113.93437 50.7L110.7625 40.325L112.575 40.325L114.23125 46.309376L114.84062 48.54375Q114.8875 48.371876 115.37187 46.403126L117.02812 40.325L118.84062 40.325L120.3875 46.340626L120.90312 48.325L121.49687 46.325L123.27812 40.325L124.98125 40.325L121.74687 50.7L119.91875 50.7L118.2625 44.48125L117.87187 42.715626L115.7625 50.7L113.93437 50.7ZM127.02812 38.403126L127.02812 36.3875L128.79375 36.3875L128.79375 38.403126L127.02812 38.403126ZM127.02812 50.7L127.02812 40.325L128.79375 40.325L128.79375 50.7L127.02812 50.7ZM134.85625 49.121876L135.10625 50.684376Q134.37187 50.840626 133.77812 50.840626Q132.825 50.840626 132.29375 50.54375Q131.77812 50.23125 131.55937 49.746876Q131.34062 49.246876 131.34062 47.66875L131.34062 41.7L130.05937 41.7L130.05937 40.325L131.34062 40.325L131.34062 37.7625L133.09062 36.7L133.09062 40.325L134.85625 40.325L134.85625 41.7L133.09062 41.7L133.09062 47.7625Q133.09062 48.5125 133.18437 48.73125Q133.27812 48.934376 133.48125 49.075Q133.7 49.2 134.09062 49.2Q134.37187 49.2 134.85625 49.121876ZM137.0125 50.7L137.0125 36.3875L138.77812 36.3875L138.77812 41.5125Q140.0125 40.090626 141.8875 40.090626Q143.02812 40.090626 143.87187 40.54375Q144.73125 40.996876 145.09062 41.809376Q145.46562 42.60625 145.46562 44.121876L145.46562 50.7L143.71562 50.7L143.71562 44.121876Q143.71562 42.809376 143.1375 42.215626Q142.55937 41.60625 141.52812 41.60625Q140.74687 41.60625 140.04375 42.0125Q139.35625 42.41875 139.05937 43.121876Q138.77812 43.809376 138.77812 45.028126L138.77812 50.7L137.0125 50.7ZM159.15312 50.7L157.3875 50.7L157.3875 39.496876Q156.7625 40.10625 155.73125 40.715626Q154.7 41.309376 153.87187 41.621876L153.87187 39.91875Q155.35625 39.23125 156.45 38.246876Q157.55937 37.246876 158.0125 36.325L159.15312 36.325L159.15312 50.7ZM163.52812 43.6375Q163.52812 41.10625 164.04375 39.559376Q164.575 37.996876 165.60625 37.16875Q166.6375 36.325 168.2 36.325Q169.35625 36.325 170.21562 36.79375Q171.09062 37.246876 171.65312 38.121876Q172.21562 38.996876 172.54375 40.2625Q172.87187 41.5125 172.87187 43.6375Q172.87187 46.153126 172.34062 47.7Q171.825 49.246876 170.79375 50.10625Q169.77812 50.95 168.2 50.95Q166.12187 50.95 164.95 49.465626Q163.52812 47.66875 163.52812 43.6375ZM165.34062 43.6375Q165.34062 47.16875 166.15312 48.340626Q166.98125 49.496876 168.2 49.496876Q169.40312 49.496876 170.23125 48.325Q171.05937 47.153126 171.05937 43.6375Q171.05937 40.10625 170.23125 38.95Q169.40312 37.778126 168.18437 37.778126Q166.96562 37.778126 166.24687 38.809376Q165.34062 40.10625 165.34062 43.6375ZM186.30937 47.60625L188.05937 47.325Q188.2 48.371876 188.87187 48.934376Q189.54375 49.48125 190.74687 49.48125Q191.95 49.48125 192.52812 48.996876Q193.12187 48.496876 193.12187 47.840626Q193.12187 47.246876 192.60625 46.903126Q192.24687 46.66875 190.80937 46.309376Q188.87187 45.809376 188.12187 45.465626Q187.3875 45.10625 186.99687 44.48125Q186.60625 43.840626 186.60625 43.075Q186.60625 42.3875 186.91875 41.79375Q187.24687 41.2 187.79375 40.809376Q188.2 40.5125 188.90312 40.309376Q189.62187 40.090626 190.43437 40.090626Q191.65312 40.090626 192.575 40.45Q193.49687 40.79375 193.93437 41.403126Q194.37187 41.996876 194.54375 42.996876L192.825 43.23125Q192.7 42.434376 192.1375 41.996876Q191.575 41.54375 190.55937 41.54375Q189.34062 41.54375 188.825 41.95Q188.30937 42.340626 188.30937 42.871876Q188.30937 43.215626 188.52812 43.496876Q188.73125 43.778126 189.2 43.965626Q189.46562 44.059376 190.74687 44.403126Q192.62187 44.903126 193.35625 45.23125Q194.09062 45.54375 194.5125 46.153126Q194.93437 46.746876 194.93437 47.653126Q194.93437 48.528126 194.41875 49.309376Q193.90312 50.090626 192.93437 50.5125Q191.96562 50.934376 190.74687 50.934376Q188.73125 50.934376 187.66875 50.090626Q186.60625 49.246876 186.30937 47.60625ZM204.12187 47.35625L205.93437 47.590626Q205.5125 49.16875 204.34062 50.059376Q203.18437 50.934376 201.37187 50.934376Q199.10625 50.934376 197.7625 49.54375Q196.43437 48.1375 196.43437 45.60625Q196.43437 42.98125 197.77812 41.54375Q199.12187 40.090626 201.27812 40.090626Q203.35625 40.090626 204.66875 41.5125Q205.99687 42.91875 205.99687 45.496876Q205.99687 45.653126 205.98125 45.965626L198.24687 45.965626Q198.34062 47.66875 199.21562 48.575Q200.09062 49.48125 201.3875 49.48125Q202.35625 49.48125 203.02812 48.98125Q203.71562 48.465626 204.12187 47.35625ZM198.34062 44.5125L204.1375 44.5125Q204.02812 43.215626 203.48125 42.559376Q202.6375 41.54375 201.29375 41.54375Q200.09062 41.54375 199.2625 42.35625Q198.43437 43.153126 198.34062 44.5125ZM214.6375 54.66875L214.6375 49.590626Q214.21562 50.16875 213.48125 50.559376Q212.74687 50.934376 211.91875 50.934376Q210.075 50.934376 208.73125 49.465626Q207.40312 47.98125 207.40312 45.41875Q207.40312 43.85625 207.93437 42.621876Q208.48125 41.371876 209.5125 40.73125Q210.54375 40.090626 211.77812 40.090626Q213.7 40.090626 214.80937 41.715626L214.80937 40.325L216.3875 40.325L216.3875 54.66875L214.6375 54.66875ZM209.21562 45.48125Q209.21562 47.48125 210.04375 48.48125Q210.8875 49.48125 212.05937 49.48125Q213.18437 49.48125 213.99687 48.54375Q214.80937 47.590626 214.80937 45.6375Q214.80937 43.575 213.95 42.528126Q213.09062 41.48125 211.95 41.48125Q210.80937 41.48125 210.0125 42.45Q209.21562 43.41875 209.21562 45.48125ZM225.80937 50.7L225.80937 49.16875Q224.60625 50.934376 222.52812 50.934376Q221.60625 50.934376 220.80937 50.590626Q220.0125 50.23125 219.62187 49.7Q219.24687 49.16875 219.09062 48.3875Q218.98125 47.871876 218.98125 46.746876L218.98125 40.325L220.73125 40.325L220.73125 46.075Q220.73125 47.45 220.84062 47.934376Q221.0125 48.621876 221.54375 49.028126Q222.09062 49.41875 222.87187 49.41875Q223.66875 49.41875 224.35625 49.0125Q225.05937 48.60625 225.34062 47.91875Q225.6375 47.215626 225.6375 45.8875L225.6375 40.325L227.3875 40.325L227.3875 50.7L225.80937 50.7ZM236.12187 47.35625L237.93437 47.590626Q237.5125 49.16875 236.34062 50.059376Q235.18437 50.934376 233.37187 50.934376Q231.10625 50.934376 229.7625 49.54375Q228.43437 48.1375 228.43437 45.60625Q228.43437 42.98125 229.77812 41.54375Q231.12187 40.090626 233.27812 40.090626Q235.35625 40.090626 236.66875 41.5125Q237.99687 42.91875 237.99687 45.496876Q237.99687 45.653126 237.98125 45.965626L230.24687 45.965626Q230.34062 47.66875 231.21562 48.575Q232.09062 49.48125 233.3875 49.48125Q234.35625 49.48125 235.02812 48.98125Q235.71562 48.465626 236.12187 47.35625ZM230.34062 44.5125L236.1375 44.5125Q236.02812 43.215626 235.48125 42.559376Q234.6375 41.54375 233.29375 41.54375Q232.09062 41.54375 231.2625 42.35625Q230.43437 43.153126 230.34062 44.5125ZM240.0125 50.7L240.0125 40.325L241.60625 40.325L241.60625 41.809376Q242.74687 40.090626 244.90312 40.090626Q245.84062 40.090626 246.62187 40.434376Q247.41875 40.7625 247.80937 41.309376Q248.2 41.85625 248.35625 42.60625Q248.45 43.10625 248.45 44.325L248.45 50.7L246.68437 50.7L246.68437 44.3875Q246.68437 43.309376 246.48125 42.778126Q246.27812 42.246876 245.74687 41.934376Q245.23125 41.621876 244.52812 41.621876Q243.40312 41.621876 242.59062 42.340626Q241.77812 43.04375 241.77812 45.028126L241.77812 50.7L240.0125 50.7ZM253.85625 49.121876L254.10625 50.684376Q253.37187 50.840626 252.77812 50.840626Q251.825 50.840626 251.29375 50.54375Q250.77812 50.23125 250.55937 49.746876Q250.34062 49.246876 250.34062 47.66875L250.34062 41.7L249.05937 41.7L249.05937 40.325L250.34062 40.325L250.34062 37.7625L252.09062 36.7L252.09062 40.325L253.85625 40.325L253.85625 41.7L252.09062 41.7L252.09062 47.7625Q252.09062 48.5125 252.18437 48.73125Q252.27812 48.934376 252.48125 49.075Q252.7 49.2 253.09062 49.2Q253.37187 49.2 253.85625 49.121876ZM256.02814 38.403126L256.02814 36.3875L257.79376 36.3875L257.79376 38.403126L256.02814 38.403126ZM256.02814 50.7L256.02814 40.325L257.79376 40.325L257.79376 50.7L256.02814 50.7ZM266.79376 49.41875Q265.8094 50.246876 264.90314 50.590626Q263.9969 50.934376 262.96564 50.934376Q261.2625 50.934376 260.34064 50.10625Q259.41876 49.2625 259.41876 47.965626Q259.41876 47.2 259.7625 46.575Q260.1219 45.95 260.6844 45.575Q261.2469 45.184376 261.95 44.98125Q262.46564 44.85625 263.5125 44.715626Q265.6375 44.465626 266.6375 44.121876Q266.65314 43.7625 266.65314 43.653126Q266.65314 42.590626 266.15314 42.1375Q265.48126 41.54375 264.15314 41.54375Q262.90314 41.54375 262.3094 41.98125Q261.73126 42.41875 261.45 43.528126L259.73126 43.29375Q259.96564 42.184376 260.4969 41.5125Q261.02814 40.825 262.04376 40.465626Q263.0594 40.090626 264.40314 40.090626Q265.73126 40.090626 266.5594 40.403126Q267.3875 40.715626 267.77814 41.2Q268.16876 41.66875 268.325 42.3875Q268.41876 42.840626 268.41876 44.0125L268.41876 46.35625Q268.41876 48.809376 268.52814 49.465626Q268.6375 50.10625 268.98126 50.7L267.1375 50.7Q266.8719 50.153126 266.79376 49.41875ZM266.6375 45.496876Q265.6844 45.8875 263.7625 46.153126Q262.6844 46.309376 262.23126 46.5125Q261.79376 46.7 261.54376 47.075Q261.29376 47.45 261.29376 47.91875Q261.29376 48.621876 261.825 49.090626Q262.35626 49.559376 263.3875 49.559376Q264.40314 49.559376 265.1844 49.121876Q265.98126 48.66875 266.35626 47.903126Q266.6375 47.29375 266.6375 46.1375L266.6375 45.496876ZM270.98126 50.7L270.98126 36.3875L272.73126 36.3875L272.73126 50.7L270.98126 50.7ZM287.79376 46.903126L289.5125 47.121876Q289.23126 48.91875 288.0594 49.934376Q286.90314 50.934376 285.2 50.934376Q283.075 50.934376 281.77814 49.54375Q280.48126 48.153126 280.48126 45.559376Q280.48126 43.871876 281.02814 42.621876Q281.59064 41.35625 282.73126 40.73125Q283.8719 40.090626 285.21564 40.090626Q286.90314 40.090626 287.96564 40.95Q289.04376 41.809376 289.35626 43.371876L287.6375 43.6375Q287.40314 42.590626 286.77814 42.075Q286.15314 41.54375 285.27814 41.54375Q283.95 41.54375 283.1219 42.496876Q282.29376 43.45 282.29376 45.496876Q282.29376 47.590626 283.09064 48.54375Q283.8875 49.48125 285.1844 49.48125Q286.21564 49.48125 286.90314 48.85625Q287.60626 48.215626 287.79376 46.903126ZM297.79376 49.41875Q296.8094 50.246876 295.90314 50.590626Q294.9969 50.934376 293.96564 50.934376Q292.2625 50.934376 291.34064 50.10625Q290.41876 49.2625 290.41876 47.965626Q290.41876 47.2 290.7625 46.575Q291.1219 45.95 291.6844 45.575Q292.2469 45.184376 292.95 44.98125Q293.46564 44.85625 294.5125 44.715626Q296.6375 44.465626 297.6375 44.121876Q297.65314 43.7625 297.65314 43.653126Q297.65314 42.590626 297.15314 42.1375Q296.48126 41.54375 295.15314 41.54375Q293.90314 41.54375 293.3094 41.98125Q292.73126 42.41875 292.45 43.528126L290.73126 43.29375Q290.96564 42.184376 291.4969 41.5125Q292.02814 40.825 293.04376 40.465626Q294.0594 40.090626 295.40314 40.090626Q296.73126 40.090626 297.5594 40.403126Q298.3875 40.715626 298.77814 41.2Q299.16876 41.66875 299.325 42.3875Q299.41876 42.840626 299.41876 44.0125L299.41876 46.35625Q299.41876 48.809376 299.52814 49.465626Q299.6375 50.10625 299.98126 50.7L298.1375 50.7Q297.8719 50.153126 297.79376 49.41875ZM297.6375 45.496876Q296.6844 45.8875 294.7625 46.153126Q293.6844 46.309376 293.23126 46.5125Q292.79376 46.7 292.54376 47.075Q292.29376 47.45 292.29376 47.91875Q292.29376 48.621876 292.825 49.090626Q293.35626 49.559376 294.3875 49.559376Q295.40314 49.559376 296.1844 49.121876Q296.98126 48.66875 297.35626 47.903126Q297.6375 47.29375 297.6375 46.1375L297.6375 45.496876ZM301.98126 50.7L301.98126 36.3875L303.73126 36.3875L303.73126 50.7L301.98126 50.7ZM305.98126 50.7L305.98126 36.3875L307.73126 36.3875L307.73126 50.7L305.98126 50.7ZM309.3094 47.60625L311.0594 47.325Q311.2 48.371876 311.8719 48.934376Q312.54376 49.48125 313.7469 49.48125Q314.95 49.48125 315.52814 48.996876Q316.1219 48.496876 316.1219 47.840626Q316.1219 47.246876 315.60626 46.903126Q315.2469 46.66875 313.8094 46.309376Q311.8719 45.809376 311.1219 45.465626Q310.3875 45.10625 309.9969 44.48125Q309.60626 43.840626 309.60626 43.075Q309.60626 42.3875 309.91876 41.79375Q310.2469 41.2 310.79376 40.809376Q311.2 40.5125 311.90314 40.309376Q312.6219 40.090626 313.4344 40.090626Q314.65314 40.090626 315.575 40.45Q316.4969 40.79375 316.9344 41.403126Q317.3719 41.996876 317.54376 42.996876L315.825 43.23125Q315.7 42.434376 315.1375 41.996876Q314.575 41.54375 313.5594 41.54375Q312.34064 41.54375 311.825 41.95Q311.3094 42.340626 311.3094 42.871876Q311.3094 43.215626 311.52814 43.496876Q311.73126 43.778126 312.2 43.965626Q312.46564 44.059376 313.7469 44.403126Q315.6219 44.903126 316.35626 45.23125Q317.09064 45.54375 317.5125 46.153126Q317.9344 46.746876 317.9344 47.653126Q317.9344 48.528126 317.41876 49.309376Q316.90314 50.090626 315.9344 50.5125Q314.96564 50.934376 313.7469 50.934376Q311.73126 50.934376 310.66876 50.090626Q309.60626 49.246876 309.3094 47.60625ZM329.3719 54.903126Q327.91876 53.075 326.91876 50.621876Q325.91876 48.153126 325.91876 45.5125Q325.91876 43.184376 326.66876 41.059376Q327.54376 38.590626 329.3719 36.1375L330.6375 36.1375Q329.45 38.16875 329.075 39.04375Q328.48126 40.3875 328.1375 41.85625Q327.71564 43.684376 327.71564 45.528126Q327.71564 50.215626 330.6375 54.903126L329.3719 54.903126ZM332.98126 50.7L332.98126 36.3875L334.73126 36.3875L334.73126 50.7L332.98126 50.7ZM336.3719 45.5125Q336.3719 42.6375 337.96564 41.246876Q339.3094 40.090626 341.23126 40.090626Q343.3719 40.090626 344.71564 41.496876Q346.075 42.903126 346.075 45.371876Q346.075 47.371876 345.48126 48.528126Q344.8875 49.66875 343.73126 50.309376Q342.59064 50.934376 341.23126 50.934376Q339.04376 50.934376 337.7 49.54375Q336.3719 48.1375 336.3719 45.5125ZM338.16876 45.5125Q338.16876 47.5125 339.02814 48.496876Q339.90314 49.48125 341.23126 49.48125Q342.54376 49.48125 343.40314 48.496876Q344.27814 47.496876 344.27814 45.45Q344.27814 43.528126 343.40314 42.54375Q342.52814 41.54375 341.23126 41.54375Q339.90314 41.54375 339.02814 42.54375Q338.16876 43.528126 338.16876 45.5125ZM349.9344 50.7L346.7625 40.325L348.575 40.325L350.23126 46.309376L350.84064 48.54375Q350.8875 48.371876 351.3719 46.403126L353.02814 40.325L354.84064 40.325L356.3875 46.340626L356.90314 48.325L357.4969 46.325L359.27814 40.325L360.98126 40.325L357.7469 50.7L355.91876 50.7L354.2625 44.48125L353.8719 42.715626L351.7625 50.7L349.9344 50.7ZM370.1219 47.35625L371.9344 47.590626Q371.5125 49.16875 370.34064 50.059376Q369.1844 50.934376 367.3719 50.934376Q365.10626 50.934376 363.7625 49.54375Q362.4344 48.1375 362.4344 45.60625Q362.4344 42.98125 363.77814 41.54375Q365.1219 40.090626 367.27814 40.090626Q369.35626 40.090626 370.66876 41.5125Q371.9969 42.91875 371.9969 45.496876Q371.9969 45.653126 371.98126 45.965626L364.2469 45.965626Q364.34064 47.66875 365.21564 48.575Q366.09064 49.48125 367.3875 49.48125Q368.35626 49.48125 369.02814 48.98125Q369.71564 48.465626 370.1219 47.35625ZM364.34064 44.5125L370.1375 44.5125Q370.02814 43.215626 369.48126 42.559376Q368.6375 41.54375 367.29376 41.54375Q366.09064 41.54375 365.2625 42.35625Q364.4344 43.153126 364.34064 44.5125ZM373.9969 50.7L373.9969 40.325L375.575 40.325L375.575 41.903126Q376.1844 40.79375 376.7 40.45Q377.21564 40.090626 377.825 40.090626Q378.71564 40.090626 379.6375 40.653126L379.02814 42.29375Q378.3875 41.903126 377.7469 41.903126Q377.16876 41.903126 376.7 42.2625Q376.2469 42.60625 376.04376 43.215626Q375.7625 44.153126 375.7625 45.2625L375.7625 50.7L373.9969 50.7ZM387.02814 38.403126L387.02814 36.3875L388.79376 36.3875L388.79376 38.403126L387.02814 38.403126ZM387.02814 50.7L387.02814 40.325L388.79376 40.325L388.79376 50.7L387.02814 50.7ZM390.3094 47.60625L392.0594 47.325Q392.2 48.371876 392.8719 48.934376Q393.54376 49.48125 394.7469 49.48125Q395.95 49.48125 396.52814 48.996876Q397.1219 48.496876 397.1219 47.840626Q397.1219 47.246876 396.60626 46.903126Q396.2469 46.66875 394.8094 46.309376Q392.8719 45.809376 392.1219 45.465626Q391.3875 45.10625 390.9969 44.48125Q390.60626 43.840626 390.60626 43.075Q390.60626 42.3875 390.91876 41.79375Q391.2469 41.2 391.79376 40.809376Q392.2 40.5125 392.90314 40.309376Q393.6219 40.090626 394.4344 40.090626Q395.65314 40.090626 396.575 40.45Q397.4969 40.79375 397.9344 41.403126Q398.3719 41.996876 398.54376 42.996876L396.825 43.23125Q396.7 42.434376 396.1375 41.996876Q395.575 41.54375 394.5594 41.54375Q393.34064 41.54375 392.825 41.95Q392.3094 42.340626 392.3094 42.871876Q392.3094 43.215626 392.52814 43.496876Q392.73126 43.778126 393.2 43.965626Q393.46564 44.059376 394.7469 44.403126Q396.6219 44.903126 397.35626 45.23125Q398.09064 45.54375 398.5125 46.153126Q398.9344 46.746876 398.9344 47.653126Q398.9344 48.528126 398.41876 49.309376Q397.90314 50.090626 396.9344 50.5125Q395.96564 50.934376 394.7469 50.934376Q392.73126 50.934376 391.66876 50.090626Q390.60626 49.246876 390.3094 47.60625ZM408.6375 50.7L407.0125 50.7L407.0125 36.3875L408.7625 36.3875L408.7625 41.496876Q409.8875 40.090626 411.60626 40.090626Q412.5594 40.090626 413.41876 40.48125Q414.27814 40.871876 414.825 41.575Q415.3719 42.2625 415.6844 43.246876Q415.9969 44.23125 415.9969 45.35625Q415.9969 48.028126 414.6844 49.48125Q413.3719 50.934376 411.52814 50.934376Q409.6844 50.934376 408.6375 49.403126L408.6375 50.7ZM408.6219 45.434376Q408.6219 47.29375 409.1219 48.1375Q409.96564 49.48125 411.3719 49.48125Q412.52814 49.48125 413.35626 48.48125Q414.2 47.48125 414.2 45.496876Q414.2 43.465626 413.3875 42.5125Q412.59064 41.54375 411.45 41.54375Q410.29376 41.54375 409.45 42.54375Q408.6219 43.54375 408.6219 45.434376ZM425.1219 47.35625L426.9344 47.590626Q426.5125 49.16875 425.34064 50.059376Q424.1844 50.934376 422.3719 50.934376Q420.10626 50.934376 418.7625 49.54375Q417.4344 48.1375 417.4344 45.60625Q417.4344 42.98125 418.77814 41.54375Q420.1219 40.090626 422.27814 40.090626Q424.35626 40.090626 425.66876 41.5125Q426.9969 42.91875 426.9969 45.496876Q426.9969 45.653126 426.98126 45.965626L419.2469 45.965626Q419.34064 47.66875 420.21564 48.575Q421.09064 49.48125 422.3875 49.48125Q423.35626 49.48125 424.02814 48.98125Q424.71564 48.465626 425.1219 47.35625ZM419.34064 44.5125L425.1375 44.5125Q425.02814 43.215626 424.48126 42.559376Q423.6375 41.54375 422.29376 41.54375Q421.09064 41.54375 420.2625 42.35625Q419.4344 43.153126 419.34064 44.5125ZM432.85626 49.121876L433.10626 50.684376Q432.3719 50.840626 431.77814 50.840626Q430.825 50.840626 430.29376 50.54375Q429.77814 50.23125 429.5594 49.746876Q429.34064 49.246876 429.34064 47.66875L429.34064 41.7L428.0594 41.7L428.0594 40.325L429.34064 40.325L429.34064 37.7625L431.09064 36.7L431.09064 40.325L432.85626 40.325L432.85626 41.7L431.09064 41.7L431.09064 47.7625Q431.09064 48.5125 431.1844 48.73125Q431.27814 48.934376 431.48126 49.075Q431.7 49.2 432.09064 49.2Q432.3719 49.2 432.85626 49.121876ZM438.85626 49.121876L439.10626 50.684376Q438.3719 50.840626 437.77814 50.840626Q436.825 50.840626 436.29376 50.54375Q435.77814 50.23125 435.5594 49.746876Q435.34064 49.246876 435.34064 47.66875L435.34064 41.7L434.0594 41.7L434.0594 40.325L435.34064 40.325L435.34064 37.7625L437.09064 36.7L437.09064 40.325L438.85626 40.325L438.85626 41.7L437.09064 41.7L437.09064 47.7625Q437.09064 48.5125 437.1844 48.73125Q437.27814 48.934376 437.48126 49.075Q437.7 49.2 438.09064 49.2Q438.3719 49.2 438.85626 49.121876ZM448.1219 47.35625L449.9344 47.590626Q449.5125 49.16875 448.34064 50.059376Q447.1844 50.934376 445.3719 50.934376Q443.10626 50.934376 441.7625 49.54375Q440.4344 48.1375 440.4344 45.60625Q440.4344 42.98125 441.77814 41.54375Q443.1219 40.090626 445.27814 40.090626Q447.35626 40.090626 448.66876 41.5125Q449.9969 42.91875 449.9969 45.496876Q449.9969 45.653126 449.98126 45.965626L442.2469 45.965626Q442.34064 47.66875 443.21564 48.575Q444.09064 49.48125 445.3875 49.48125Q446.35626 49.48125 447.02814 48.98125Q447.71564 48.465626 448.1219 47.35625ZM442.34064 44.5125L448.1375 44.5125Q448.02814 43.215626 447.48126 42.559376Q446.6375 41.54375 445.29376 41.54375Q444.09064 41.54375 443.2625 42.35625Q442.4344 43.153126 442.34064 44.5125ZM451.9969 50.7L451.9969 40.325L453.575 40.325L453.575 41.903126Q454.1844 40.79375 454.7 40.45Q455.21564 40.090626 455.825 40.090626Q456.71564 40.090626 457.6375 40.653126L457.02814 42.29375Q456.3875 41.903126 455.7469 41.903126Q455.16876 41.903126 454.7 42.2625Q454.2469 42.60625 454.04376 43.215626Q453.7625 44.153126 453.7625 45.2625L453.7625 50.7L451.9969 50.7ZM460.16876 54.903126L458.91876 54.903126Q461.825 50.215626 461.825 45.528126Q461.825 43.684376 461.41876 41.8875Q461.075 40.41875 460.48126 39.075Q460.10626 38.184376 458.91876 36.1375L460.16876 36.1375Q462.0125 38.590626 462.8875 41.059376Q463.6375 43.184376 463.6375 45.5125Q463.6375 48.153126 462.6219 50.621876Q461.6219 53.075 460.16876 54.903126Z" fill-rule="nonzero"/></svg>